<?xml version="1.0" encoding="utf-8"?>
<!-- Svg Vector Icons : http://www.onlinewebfonts.com/icon -->
<!DOCTYPE svg PUBLIC "-//W3C//DTD SVG 1.1//EN" "http://www.w3.org/Graphics/SVG/1.1/DTD/svg11.dtd">
<svg version="1.1" xmlns="http://www.w3.org/2000/svg" xmlns:xlink="http://www.w3.org/1999/xlink" x="0px" y="0px" viewBox="0 0 1000 1000" enable-background="new 0 0 1000 1000" xml:space="preserve">
<metadata> Svg Vector Icons : http://www.onlinewebfonts.com/icon </metadata>
<g><path d="M891.2,158.7c-6.8-31.4-25.5-59.5-52.7-79.2l-60.3-43.6C755.1,19.2,727.1,10,699.6,10c-37.8,0-71.4,16.5-92.2,45.3l-39.8,55c-9.7,13.4-10.5,29.8-5.3,44.2c-15.3-0.2-30.8,5.8-40.1,18.5L136.7,706.4c-9.7,13.4-10.6,29.9-5.2,44.4c-2.5,0.5-4.8,1.2-6.5,2.1l-2-1.4l0.2,2.4c-5.5,3.4-18.8,13.9-17,36.8l12.3,158.2c1.1,13.6,7.5,25.3,18.1,33c7.4,5.4,16.3,8.2,25.7,8.2c4.1,0,8.2-0.5,12.2-1.6l149.9-40.2c15.2-4.1,26-14.6,29-28.3l1.9-0.5l-1.6-1.1c0.1-0.4,0-0.8,0-1.2c3.4,0.8,6.8,1.6,10.4,1.6c15.4,0,29.9-7.4,38.9-19.8l385.6-533.3c7.5-10.4,10.5-23,8.5-35.6c-0.4-2.7-1.9-4.9-2.7-7.4c0.3,0,0.5,0.1,0.7,0.1c15.4,0,30-7.4,38.9-19.8l39.7-54.9C892,222.5,898.2,190.8,891.2,158.7z M562.9,212.6l63.9,46.2l-370,524.1L187,732.5L562.9,212.6z M173.5,930.8L165.4,827L272,904.1L173.5,930.8z M362.2,859.1l-61.1-44.2l370-524.1l67,48.5L362.2,859.1z M828.1,214.9l-35,48.3L618,136.5l34.9-48.3c18.4-25.4,61.9-28.6,92.3-6.7l60.3,43.6C837.2,148,847.3,188.3,828.1,214.9z"/></g>
</svg>